<?xml version="1.0" encoding="UTF-8" standalone="no"?>
<!-- Created with Inkscape (http://www.inkscape.org/) -->

<svg
   xmlns:dc="http://purl.org/dc/elements/1.1/"
   xmlns:cc="http://creativecommons.org/ns#"
   xmlns:rdf="http://www.w3.org/1999/02/22-rdf-syntax-ns#"
   xmlns:svg="http://www.w3.org/2000/svg"
   xmlns="http://www.w3.org/2000/svg"
   xmlns:sodipodi="http://sodipodi.sourceforge.net/DTD/sodipodi-0.dtd"
   xmlns:inkscape="http://www.inkscape.org/namespaces/inkscape"
   width="105.55158mm"
   height="178.1391mm"
   viewBox="0 0 374.00167 631.20153"
   id="svg2"
   version="1.1"
   inkscape:version="0.91 r13725"
   sodipodi:docname="man_with_coffee.svg">
  <defs
     id="defs4">
    <filter
       inkscape:collect="always"
       style="color-interpolation-filters:sRGB"
       id="filter5475"
       x="-0.912"
       width="2.8239999"
       y="-1.7538462"
       height="4.5076923">
      <feGaussianBlur
         inkscape:collect="always"
         stdDeviation="13.571429"
         id="feGaussianBlur5477" />
    </filter>
    <filter
       inkscape:collect="always"
       style="color-interpolation-filters:sRGB"
       id="filter5475-7"
       x="-0.912"
       width="2.8239999"
       y="-1.7538462"
       height="4.5076923">
      <feGaussianBlur
         inkscape:collect="always"
         stdDeviation="13.571429"
         id="feGaussianBlur5477-4" />
    </filter>
  </defs>
  <sodipodi:namedview
     id="base"
     pagecolor="#ffffff"
     bordercolor="#666666"
     borderopacity="1.0"
     inkscape:pageopacity="0.0"
     inkscape:pageshadow="2"
     inkscape:zoom="0.7"
     inkscape:cx="37.608364"
     inkscape:cy="384.76194"
     inkscape:document-units="px"
     inkscape:current-layer="layer2"
     showgrid="false"
     showguides="false"
     inkscape:window-width="1440"
     inkscape:window-height="897"
     inkscape:window-x="-8"
     inkscape:window-y="-8"
     inkscape:window-maximized="1"
     fit-margin-top="0"
     fit-margin-left="0"
     fit-margin-right="0"
     fit-margin-bottom="0" />
  <metadata
     id="metadata7">
    <rdf:RDF>
      <cc:Work
         rdf:about="">
        <dc:format>image/svg+xml</dc:format>
        <dc:type
           rdf:resource="http://purl.org/dc/dcmitype/StillImage" />
        <dc:title></dc:title>
      </cc:Work>
    </rdf:RDF>
  </metadata>
  <g
     inkscape:groupmode="layer"
     id="layer2"
     inkscape:label="Layer 2"
     style="display:inline"
     transform="translate(-206.57038,-219.61327)">
    <path
       style="fill:#afff3f;fill-opacity:1;fill-rule:evenodd;stroke:#000000;stroke-width:4;stroke-linecap:round;stroke-linejoin:round;stroke-miterlimit:4;stroke-dasharray:none;stroke-opacity:1"
       d="m 366.1803,559.91284 c -5.27238,17.37403 -11.39184,33.26565 -14.14214,55.05331 -0.96019,0 -7.24541,55.05332 -4.29315,54.54824 1.34048,-0.22933 90.6612,7.57614 90.6612,7.57614 -6.1494,-21.60983 -13.0539,-42.65333 -16.66752,-66.16499 -2.11721,-18.29394 -1.71998,-36.89968 -0.50508,-52.52793"
       id="path4212"
       inkscape:connector-curvature="0"
       sodipodi:nodetypes="ccsccc" />
    <path
       style="fill:#ffccaa;fill-rule:evenodd;stroke:#000000;stroke-width:4;stroke-linecap:butt;stroke-linejoin:miter;stroke-miterlimit:4;stroke-dasharray:none;stroke-opacity:1"
       d="m 379.28572,221.64791 c 124.30963,-2.09228 199.53231,90.91216 199.28571,175 -7.8083,81.25219 -33.98779,150.88094 -182.14285,164.28572 C 267.17887,561.06296 214.26963,494.96662 208.57143,398.07649 208.23472,257.66742 288.17835,224.88128 379.28572,221.64791 Z"
       id="path3389"
       inkscape:connector-curvature="0"
       sodipodi:nodetypes="ccccc" />
    <path
       style="fill:none;fill-rule:evenodd;stroke:#000000;stroke-width:4;stroke-linecap:round;stroke-linejoin:round;stroke-miterlimit:4;stroke-dasharray:none;stroke-opacity:1"
       d="m 335.71429,338.07649 c -7.56151,13.15543 -9.4319,24.41381 -11.42858,35.71429"
       id="path4191"
       inkscape:connector-curvature="0"
       sodipodi:nodetypes="cc" />
    <path
       style="fill:none;fill-rule:evenodd;stroke:#000000;stroke-width:4;stroke-linecap:round;stroke-linejoin:miter;stroke-miterlimit:4;stroke-dasharray:none;stroke-opacity:1"
       d="m 407.14286,343.79078 c -3.52227,11.45315 -7.44463,22.70625 -3.57143,37.85714"
       id="path4193"
       inkscape:connector-curvature="0"
       sodipodi:nodetypes="cc" />
    <path
       style="fill:none;fill-rule:evenodd;stroke:#000000;stroke-width:4;stroke-linecap:round;stroke-linejoin:miter;stroke-miterlimit:4;stroke-dasharray:none;stroke-opacity:1"
       d="m 324.28571,478.07649 c 5.35854,11.66387 16.11989,20.37927 27.14286,20.71428 20.93055,0.21626 37.77771,1.34913 45.71429,-11.42857"
       id="path4210"
       inkscape:connector-curvature="0"
       sodipodi:nodetypes="ccc" />
    <path
       style="fill:none;fill-rule:evenodd;stroke:#000000;stroke-width:4;stroke-linecap:butt;stroke-linejoin:miter;stroke-miterlimit:4;stroke-dasharray:none;stroke-opacity:1"
       d="m 357.14286,587.71935 c -7.14266,21.08555 -16.02309,38.75393 -39.28572,50.35714 -6.32861,0.45711 -21.4282,-4.28534 -30.71428,-6.78571"
       id="path4216"
       inkscape:connector-curvature="0"
       sodipodi:nodetypes="ccc" />
    <circle
       style="fill:#ffccaa;stroke:#000000;stroke-width:4;stroke-linecap:round;stroke-linejoin:round;stroke-miterlimit:4;stroke-dasharray:none"
       id="path4218"
       cx="278.57144"
       cy="625.57648"
       r="11.428572" />
    <path
       style="fill:none;fill-rule:evenodd;stroke:#000000;stroke-width:4;stroke-linecap:butt;stroke-linejoin:miter;stroke-miterlimit:4;stroke-dasharray:none;stroke-opacity:1"
       d="m 209.28571,569.8622 c 25.47994,-5.44105 49.9891,-2.25056 73.57143,4.64286 -2.14285,13.73265 -4.28571,27.54557 -6.42857,40.35714"
       id="path4226"
       inkscape:connector-curvature="0"
       sodipodi:nodetypes="ccc" />
    <path
       style="fill:none;fill-rule:evenodd;stroke:#000000;stroke-width:4;stroke-linecap:round;stroke-linejoin:round;stroke-miterlimit:4;stroke-dasharray:none;stroke-opacity:1"
       d="m 274.64286,635.93363 -6.07143,32.14286 -47.14286,3.92857 L 210,569.14792"
       id="path4230"
       inkscape:connector-curvature="0" />
    <path
       style="fill:none;fill-rule:evenodd;stroke:#000000;stroke-width:4;stroke-linecap:round;stroke-linejoin:round;stroke-miterlimit:4;stroke-dasharray:none;stroke-opacity:1"
       d="m 404.64286,584.14792 c 0.47968,17.14286 4.47324,34.28571 -1.07143,51.42857 -12.23906,15.75759 -27.50093,17.9125 -41.42857,26.07143"
       id="path4232"
       inkscape:connector-curvature="0"
       sodipodi:nodetypes="ccc" />
    <circle
       style="fill:#ffccaa;stroke:#000000;stroke-width:4;stroke-linecap:round;stroke-linejoin:round;stroke-miterlimit:4;stroke-dasharray:none"
       id="path4218-0"
       cx="349.64285"
       cy="665.21936"
       r="11.428572" />
    <path
       style="fill:none;fill-rule:evenodd;stroke:#000000;stroke-width:4;stroke-linecap:round;stroke-linejoin:round;stroke-miterlimit:4;stroke-dasharray:none;stroke-opacity:1"
       d="m 413.21429,675.57649 c -7.57777,20.58698 -4.80178,39.10321 -3.21429,57.85714 9.92809,53.92668 26.91241,86.73335 33.92857,107.5 1.75123,2.52437 -10.14677,5.90621 -13.57143,7.14286 -9.312,1.93105 -14.6842,-0.0777 -19.28571,-2.85714 -2.19034,-5.30949 1.05719,-8.81308 2.5,-13.21428 4.8747,-6.58521 15.26493,-6.27599 23.57143,-8.57144"
       id="path4249"
       inkscape:connector-curvature="0"
       sodipodi:nodetypes="ccccccc" />
    <path
       style="fill:none;fill-rule:evenodd;stroke:#000000;stroke-width:4;stroke-linecap:round;stroke-linejoin:round;stroke-miterlimit:4;stroke-dasharray:none;stroke-opacity:1"
       d="m 372.5,672.3622 c -8.29006,10.49648 -9.96408,13.91818 -13.21429,31.07143 -4.62719,31.93179 0.81993,57.08354 3.57143,80.71429 3.44497,21.6148 5.65265,34.56855 8.21429,50 -6.58038,5.22612 -14.30565,5.87265 -21.78572,7.5 -12.64227,-0.18035 -14.58896,-5.14774 -18.92857,-11.78571 -1.58752,-8.63112 5.73745,-9.00049 12.5,-13.57143 11.55702,-2.44117 5.32173,-1.64014 23.92857,-2.50001"
       id="path4251"
       inkscape:connector-curvature="0"
       sodipodi:nodetypes="cccccccc" />
    <path
       style="fill:#d46a6a;fill-opacity:1;stroke:#000000;stroke-width:4.04061031;stroke-linecap:round;stroke-linejoin:round;stroke-miterlimit:4;stroke-dasharray:none"
       d="m 223.33806,668.42475 c 0.0167,-0.74331 -2.34328,-22.59123 -5.24431,-48.55092 -2.90103,-25.9597 -5.01428,-47.45977 -4.69611,-47.77793 1.59743,-1.59744 15.70915,-2.70464 27.5878,-2.16453 10.95574,0.49814 37.18878,4.69445 38.68201,6.18768 0.19795,0.19795 -0.89197,8.3332 -2.42205,18.07833 l -2.78196,17.71842 -3.60702,2.33108 c -6.94514,4.48839 -7.98994,14.95303 -2.08272,20.86025 l 2.96274,2.96273 -2.60156,13.69802 -2.60156,13.69802 -4.18765,0.53797 c -2.3032,0.29589 -10.32432,1.01136 -17.8247,1.58994 -7.50038,0.57858 -15.34169,1.30631 -17.42513,1.61719 -2.7789,0.41466 -3.78,0.20519 -3.75778,-0.78625 z"
       id="path4253"
       inkscape:connector-curvature="0" />
    <path
       style="fill:#d40000;fill-opacity:1;stroke:#000000;stroke-width:4.04061031;stroke-linecap:round;stroke-linejoin:round;stroke-miterlimit:4;stroke-dasharray:none"
       d="m 340.99054,837.37131 c -4.77381,-2.23131 -9.06597,-8.09635 -8.11584,-11.08993 0.35527,-1.11935 3.22766,-3.4335 6.38309,-5.14256 4.53929,-2.45858 7.81145,-3.33303 15.67212,-4.18818 5.46425,-0.59444 10.10012,-0.91568 10.30195,-0.71385 0.20183,0.20183 1.01665,4.12901 1.81071,8.72707 1.69694,9.82618 2.17981,9.23328 -10.07188,12.36674 -9.46012,2.41949 -10.88307,2.42311 -15.98015,0.0407 z"
       id="path4255"
       inkscape:connector-curvature="0" />
    <path
       style="fill:#d40000;fill-opacity:1;stroke:#000000;stroke-width:4.04061031;stroke-linecap:round;stroke-linejoin:round;stroke-miterlimit:4;stroke-dasharray:none"
       d="m 416.49944,844.9324 c -3.71374,-1.68547 -4.10956,-3.71476 -1.80188,-9.23781 1.07876,-2.58183 2.65663,-4.06082 5.80837,-5.44435 5.19898,-2.28221 14.77979,-4.13432 15.48489,-2.99345 0.27774,0.44939 1.60959,3.75175 2.95967,7.33858 l 2.45469,6.52153 -5.20243,2.23802 c -6.66031,2.86519 -15.3356,3.55975 -19.70331,1.57748 z"
       id="path4257"
       inkscape:connector-curvature="0" />
    <path
       style="fill:none;fill-rule:evenodd;stroke:#800000;stroke-width:4;stroke-linecap:round;stroke-linejoin:round;stroke-miterlimit:4;stroke-dasharray:none;stroke-opacity:1"
       d="m 237.38585,563.44837 c 3.48884,-3.71204 4.34801,-9.06761 4.04061,-15.15229 -9.77993,4.96622 -11.158,3.36458 -15.26958,-2.61729 -1.86529,-8.45166 -3.15757,-15.85997 1.12744,-26.67713 5.27857,-8.41651 10.24605,-16.96634 25.25382,-21.2132"
       id="path4265"
       inkscape:connector-curvature="0"
       sodipodi:nodetypes="ccccc" />
    <path
       sodipodi:nodetypes="ccccc"
       inkscape:connector-curvature="0"
       id="path4282"
       d="m 258.45728,564.51981 c 3.48884,-3.71204 4.34801,-9.06761 4.04061,-15.15229 -9.77993,4.96622 -11.158,3.36458 -15.26958,-2.61729 -1.86529,-8.45166 -3.15757,-15.85997 1.12744,-26.67713 5.27857,-8.41651 10.24605,-16.96634 25.25382,-21.2132"
       style="fill:none;fill-rule:evenodd;stroke:#800000;stroke-width:4;stroke-linecap:round;stroke-linejoin:round;stroke-miterlimit:4;stroke-dasharray:none;stroke-opacity:1" />
    <ellipse
       style="fill:#ff8080;fill-opacity:1;stroke:none;stroke-width:4;stroke-linecap:round;stroke-linejoin:round;stroke-miterlimit:4;stroke-dasharray:none;filter:url(#filter5475)"
       id="path4284"
       cx="270.71429"
       cy="447.36221"
       rx="17.857143"
       ry="9.2857141" />
    <ellipse
       style="display:inline;fill:#ff8080;fill-opacity:1;stroke:none;stroke-width:4;stroke-linecap:round;stroke-linejoin:round;stroke-miterlimit:4;stroke-dasharray:none;filter:url(#filter5475-7)"
       id="path4284-3"
       cx="485.71429"
       cy="467.36221"
       rx="17.857143"
       ry="9.2857141" />
  </g>
</svg>
